<svg class="logo-main" viewbox="0 0 777.6 123.5" xml:space="preserve" xmlns="http://www.w3.org/2000/svg"><g fill="#145559"><path d="M2.4 58.5h15.8c-.3 14.9 5.1 27.2 16.9 36.3 7.7 6 16.5 9 26.3 9 10.7-.1 20.3-3.5 28.4-10.7 6-5.3 10.2-11.8 12.5-19.7H54.8V58.9h64.9c-.2 2.8-.2 5.6-.5 8.3-1.1 9.5-4 18.4-9.4 26.4-9.2 13.7-21.9 22.2-38 25.3-31.3 5.9-60.2-14.3-67.5-43.9-1-3.5-1.2-7.3-1.7-11-.1-.4-.1-.8-.2-1.1v-4.4zM613.8 118.7h-17.6V66.6c0-8.2-5.4-14.9-13.4-16.6-7.6-1.6-17.8 2.7-19.6 13.5-.2 1.3-.3 2.6-.3 3.9V118.7h-16.6V67c0-5.3-1.6-10-6-13.4-9.8-7.5-21.2-3-25.4 4.7-1.5 2.7-2 5.6-2 8.5V118.6h-17V38.2h16.9v6c6.9-6.5 14.7-9.6 23.9-9 9.3.6 16.6 4.9 22.2 12.2.9-1 1.7-2 2.6-2.9 5.7-5.8 12.5-9 20.6-9.4 15.2-.8 28.4 9.6 31.1 23.6.4 1.8.5 3.7.5 5.6v52.8c.1.6.1 1.1.1 1.6zM270.1 38.2H287v6c6.9-6.5 14.7-9.6 23.9-9 9.3.7 16.5 4.9 21.9 11.8 1.8-1.6 3.5-3.2 5.3-4.7 5.3-4.4 11.4-6.7 18.3-7.2 13.8-.9 27 8.4 30.5 21.7.6 2.3.9 4.8.9 7.2.1 17.7 0 35.4 0 53.1v1.4h-17.5v-52c0-9-6.5-16.3-15.5-16.9-8.4-.6-16.6 4.9-17.7 14.9-.2 1.5-.2 3.1-.2 4.7V118.5h-16.6V67c0-5.3-1.5-10-5.8-13.4-9.7-7.7-21.3-3.3-25.6 4.4-1.4 2.6-2 5.4-2 8.3v52.1H270c.1-26.5.1-53.3.1-80.2zM485 36.4c-.5 0-.8.1-1.1.1H469c-.7 0-1.1-.1-1.2-1-.4-8.4-7.4-16.4-15.8-18-7.2-1.3-13.9-.1-19.4 5-3.1 2.8-4.8 6.3-5.3 10.5-.4 3.4 1 6.1 3.4 8.3 3.2 2.9 7 4.9 11 6.5 5.5 2.2 11.1 4.2 16.6 6.5 5.8 2.4 11.5 4.9 16.6 8.6 6.1 4.4 10.1 10 11.3 17.5 1.5 9.5-1.1 17.8-7.3 25-6.8 8.1-15.6 12.5-26.1 13.8-9.1 1.1-17.9-.1-25.8-4.7-12.5-7.1-19.2-18.1-19.8-32.5v-.7c0-.1 0-.2.1-.3h16.6c.4 2.6.4 5.2 1.1 7.6 2.4 8.7 8.4 13.8 17.1 15.5 6.7 1.3 13.2.6 19-3.3 5.8-3.9 8.7-9.5 8.3-16.6-.2-3.5-1.9-6.3-4.5-8.6-2.8-2.6-6-4.4-9.5-5.8-7.7-3.3-15.4-6.4-23.1-9.6-5.5-2.3-10.9-4.9-15.3-9.2-5.2-5-7.5-11.1-6.8-18.2 1.1-12 7.7-20.6 18.1-25.9C443-.5 457.5.1 471 10c7.7 5.6 12.1 13.5 13.6 22.9.2 1.2.3 2.3.4 3.5zM237.7 47.3v-9.6h17.4v80.9h-17.4v-10.2c-10.4 11.1-23.1 14.3-37.3 12.2-11.1-1.6-20-7.4-26.9-16.1-13.4-17.1-12-41.7 3.3-57 8.3-8.4 18.4-12.9 30.4-12.8 11.7.1 22.1 3.8 30.2 12.7.1.1.2 0 .3-.1zm1.3 31.1c-.1-16-12.9-28.8-28.9-28.8-15.8 0-28.8 13-28.7 28.8.1 15.4 13.6 28.8 29.2 28.8 15.5 0 28.5-13.3 28.4-28.8zM774.6 84.9h-69.5c1 4.5 2.9 8.4 5.8 11.8 10.4 12.2 29.8 13 41.2 1.6 1.8-1.8 3.2-4.1 4.8-6.1.2-.3.6-.7.9-.7H773c.1 0 .1.1.2.1C768 109 750 125.3 724.8 121c-24.4-4.2-39.9-27.5-34.8-51.7 5-23.5 29-38.7 52.1-33 22.8 5.7 36.3 27.1 32.5 48.6zm-69-13H760c-2.2-11.7-14.3-22.2-29-21.4-14.8.9-23.8 11.9-25.4 21.4zM5.3 45.1C10 26.1 28.6 4.2 57.6 2.3c29.8-2 53.4 18.3 60.1 42.8H102.5c-1 0-1.5-.3-2-1.2C94.7 32.3 86 24 73.5 20.1c-20.6-6.4-42.9 4-51.6 23.9-.4.8-.8 1.1-1.7 1.1-5-.1-9.9 0-14.9 0zM149.2 117h-16.9V5.2h16.9V117zM661.2 7.7h16.9v111.8h-16.9V7.7zM628.6 38.7h16.8v80.9h-16.8V38.7zM645.4 22h-16.8V7.7h16.8V22z"></path></g></svg>