<svg class="svg--brand-engie" height="32" viewbox="0 0 90 32" width="90" xmlns="http://www.w3.org/2000/svg"><path d="M80.322 16.685c6.54 0 8.773 3.72 8.773 6.175 0 1.553-.664 2.305-2.02 2.305-2.048-.006-6.175-.04-7.8-.04-1.136-.005-1.559-.645-1.559-1.206 0-.71.527-1.235 1.513-1.272 1.736-.065 3.823-.13 4.933-.196 1.209-.07 1.38-.938.767-1.575-.992-1.02-2.905-1.53-5.353-1.336-2.333.188-5.294 1.482-5.294 4.662 0 4.21 6.835 5.578 12.805 4.298.848-.183 1.414.078 1.594.777.206.778-.428 1.28-1.127 1.519-7.375 2.532-17.442.452-17.442-6.364 0-4.805 4.294-7.747 10.21-7.747zm-69.28 0c6.538 0 8.775 3.72 8.775 6.175 0 1.553-.668 2.305-2.02 2.305-2.048-.006-6.178-.04-7.804-.04-1.135-.005-1.558-.645-1.558-1.206 0-.71.527-1.235 1.513-1.272 1.735-.065 3.823-.13 4.936-.196 1.206-.07 1.378-.938.763-1.575-.994-1.02-2.907-1.53-5.352-1.336C7.959 19.728 5 21.022 5 24.202c0 4.21 6.832 5.578 12.805 4.298.848-.183 1.414.078 1.597.777.206.778-.428 1.28-1.127 1.519C10.896 33.328.83 31.248.83 24.432c0-4.805 4.294-7.747 10.21-7.747zm41.36-.008a22.1 22.1 0 0 1 5.76.684c1.036.273 1.551.778 1.34 1.564-.197.741-.986.884-1.789.772-9.125-1.289-12.199 1.74-12.199 4.491 0 2.925 3.59 4.772 6.852 4.772 2.493 0 4.9-.84 5.888-2.12.493-.64.473-1.386-.983-1.459-1.082-.056-3.426-.166-5.266-.261-1.208-.062-1.558-.707-1.558-1.207 0-.575.324-1.272 1.62-1.272 2.48-.005 6.258-.034 7.867-.038h.332c1.417 0 2.26.63 2.254 2.278 0 3.24-3.328 6.945-10.16 6.945-6.119 0-11.027-2.453-11.027-7.506 0-4.721 4.925-7.643 11.07-7.643zm15.783 4.402.054.003a.216.216 0 0 1 .174.251 178.49 178.49 0 0 1-.633 8.503c-.127 1.417-.834 1.78-1.564 1.78-.73 0-1.448-.388-1.575-1.791-.099-1.081-.45-4.163-.583-7.88a.233.233 0 0 1 .186-.23l3.888-.626a.219.219 0 0 1 .107-.007zm-44.176-4.054a2.295 2.295 0 0 1 1.51.561l8.126 6.883c.512.443 1.115.78 1.611.561.413-.182.508-.581.567-1.005l.033-.255c.113-.848.623-4.191.752-5.157.116-.873.57-1.586 1.454-1.586.752 0 1.38.545 1.378 1.539v10.722c0 2.044-1.223 2.325-1.896 2.325a2.21 2.21 0 0 1-1.651-.62s-6.835-6.156-7.663-6.872c-.829-.716-1.372-1.053-1.956-.873-.645.199-.749.721-.867 1.386-.093.573-.938 5.701-.938 5.701a1.373 1.373 0 0 1-1.41 1.278c-.027 0-.055 0-.083-.003a1.299 1.299 0 0 1-1.22-1.373V19.472c0-1.737 1.104-2.447 2.253-2.447zm42.331-.353.113.002a2.176 2.176 0 0 1 2.09 2.26c-.017.092-.017.286-.017.477a.233.233 0 0 1-.197.221l-4.057.657a.239.239 0 0 1-.282-.222 40.555 40.555 0 0 1-.045-1.145 2.147 2.147 0 0 1 2.282-2.246 2.43 2.43 0 0 1 .226-.002zM44.956 0C62.148 0 77.863 4.848 89.91 12.862 77.93 8.892 63.923 6.43 44.956 6.43 25.99 6.43 11.982 8.893 0 12.86 12.047 4.849 27.765 0 44.956 0z" fill="#0AF" fill-rule="nonzero"></path></svg>