<svg class="logo__image" fill="none" height="37" viewbox="0 0 168 37" width="168" xmlns="http://www.w3.org/2000/svg"><path clip-rule="evenodd" d="M66.83 30.29h-3.08v2h3.08c.66 0 1.04-.33 1.04-1.02 0-.7-.36-.98-1.04-.98Zm0 3.04h-3.08v3H62.7v-7.08h4.12c1.25 0 2.07.75 2.07 2.02 0 1.26-.83 2.06-2.07 2.06h.01Zm8.72-2.82-1.12 2.47h2.24l-1.12-2.47Zm2.6 5.83-1.01-2.31h-3.19l-1.05 2.3h-1.12L75 29.27h1.14l3.17 7.08h-1.16v-.01Zm9.07-6.06h-3.16v2.09h3.16c.7 0 1.2-.34 1.2-1.09 0-.74-.52-1-1.2-1Zm.6 3.08 1.47 2.98h-1.17L86.7 33.4h-2.64v2.94h-1.04v-7.09h4.2c1.3 0 2.23.74 2.23 2.09 0 1.07-.6 1.78-1.63 2.02ZM93.52 36.34h1.02v-7.09h-1.02v7.09Zm8.41.16a4.578 4.578 0 0 1-3.54-1.45l.72-.7c.91.85 1.73 1.1 2.97 1.1.78 0 2.2-.24 2.2-1.27 0-.35-.19-.62-.48-.8-.38-.24-.73-.26-1.77-.28l-1.07-.02c-1.1-.02-2.1-.6-2.1-1.82 0-1.03.86-1.72 1.76-2.02a4.852 4.852 0 0 1 4.17.79l-.58.83a3.8 3.8 0 0 0-2.23-.75c-.7 0-2.08.22-2.08 1.15 0 .69.64.81 1.2.81h1.05c.8 0 1.44.01 2.14.43.64.38 1 1.03 1 1.77 0 1.72-1.97 2.23-3.36 2.23ZM17.25 7.66h-1.09c-1.42-3.88-2.95-5.9-6.12-5.9-3.4 0-4.87 3.11-4.87 8.47 0 5.58 1.86 8.48 5.58 8.48 3.6 0 5.68-2.3 5.9-6.43h1.2c0 4.79-2.7 7.68-7.7 7.68-6.46 0-10-4.48-10-9.73S4.56.5 9.73.5c2.05 0 3.8.77 5.35 1.61L16.16 1h1.1v6.67l-.01-.01ZM33.48 2.6v1c-1.17 0-1.93.2-1.93.76 0 .28.17.67.52 1.32l2.57 4.92 2.28-4.58c.3-.6.47-1.04.47-1.38 0-.65-.82-1.04-2.13-1.04v-1h6.24v1c-1.88.24-2.26.71-2.75 1.7l-3.56 7.26V17c0 1.24.59 1.63 2.77 1.63v1h-9.53v-1c2.2 0 2.8-.4 2.8-1.63v-4.55L28.1 6.32c-.9-1.73-1.39-2.7-2.85-2.72v-1h8.23Zm20.64 7.98c2.7-.13 4.36-.55 4.36-3.4 0-2.05-1.04-3.43-2.75-3.43-.87 0-1.61.34-1.61 1.48v5.35Zm10.25 5.3c0 2.44-1.02 4.05-3.62 4.05-2.52 0-3.51-1.33-3.69-4.25-.17-3.02-.27-3.84-2.94-4.21v5.2c0 1.4.32 1.97 2.38 1.97v1h-8.77v-1c1.84 0 2.43-.4 2.43-1.63V5.23c0-1.24-.6-1.63-2.43-1.63v-1h8.67c4.2 0 6.33 1.69 6.33 4.56 0 3.24-3.21 4.06-5.99 4.11v.05c3.02.4 3.74 2 4.28 3.71.8 2.4.92 2.67 1.51 2.67.62 0 .77-.99.85-1.83h.99v.01Zm6.55 3.75v-.99c1.83 0 2.43-.4 2.43-1.63V5.23c0-1.24-.6-1.63-2.43-1.63v-1h9.01v1c-1.83 0-2.43.4-2.43 1.63v11.78c0 1.24.6 1.63 2.43 1.63v1h-9l-.01-.01Zm16.16 0v-.99c1.83 0 2.43-.4 2.43-1.63V5.23c0-1.24-.6-1.63-2.43-1.63v-1h9.01v1c-1.83 0-2.43.4-2.43 1.63v11.73c0 1.19.45 1.54 1.69 1.54 2.5 0 4.45-2.58 5.1-5.4h1.06l-.15 6.53H87.08Zm21.53 0v-.99c1.83 0 2.43-.4 2.43-1.63V5.23c0-1.24-.6-1.63-2.43-1.63v-1h9.01v1c-1.83 0-2.43.4-2.43 1.63v11.73c0 1.19.45 1.54 1.69 1.54 2.5 0 4.45-2.58 5.1-5.4h1.06l-.15 6.53h-14.28ZM138.58 2.6v1c-1.93 0-2.52.4-2.52 1.63v10.2c0 2.27 1.93 3.36 3.54 3.36 2.77 0 4.18-1.43 4.18-4.3V5.48c0-1.24-.6-1.64-2.65-1.88v-1h6.26v1c-1.68.24-2.27.64-2.27 1.88v8.8c0 3.92-2.4 5.65-6.51 5.65-2.75 0-6.36-1.09-6.36-4.9v-9.8c0-1.24-.6-1.63-2.4-1.63v-1h8.73Zm17.23 10.5c.66 2.7 2.32 5.7 5.47 5.7 1.7 0 3.16-.8 3.16-2.88 0-3.59-9.57-2.35-9.57-8.02 0-3.56 2.64-5.59 5.76-5.59 2.7 0 3.6 1.31 4.26 1.31.5 0 .7-.57.96-1.01h1.04V8.5h-.99c-.71-2.7-2.3-5.05-4.9-5.05-1.56 0-2.87.86-2.87 2.5 0 3.86 9.73 1.95 9.73 8.36 0 3.7-3.34 5.62-6.09 5.62-3.04 0-4.2-1.29-5-1.29-.5 0-.87.67-1.06 1h-1V13.1h1.1Z" fill="currentColor" fill-rule="evenodd"></path></svg>